# xmcd CD database file
#
# Track frame offsets:
#	450
#	31089
#	47291
#	73018
#	96759
#	116635
#	136799
#	158019
#	184221
#	202355
#	222578
#	253615
#	281796
#	312999
#
# Disc length: 4390 seconds
#
# Revision: 0
# Processed by: cddbd v1.5.2PL0 Copyright (c) Steve Scherf et al.
# Submitted via: CDex 1.51
#
DISCID=d411200e
DTITLE=Mirek's Swingtett - ... weil's Spass macht
DYEAR=1900
DGENRE=Jazz
TTITLE0=Sugar
TTITLE1=Bourbon Street Parade
TTITLE2=Bei mir bist du schön
TTITLE3=Ich fahr so gerne Rad
TTITLE4=Royal Garden Blues
TTITLE5=Hallo kleines Fräulein
TTITLE6=Indian love call
TTITLE7=What a wonderful world
TTITLE8=Apex Blues
TTITLE9=Bill Bailey won't you please come home
TTITLE10=Tin roof blues
TTITLE11=Memphis Blues
TTITLE12=Georgia in my mind
TTITLE13=Mercy, mercy
EXTD=
EXTT0=
EXTT1=
EXTT2=
EXTT3=
EXTT4=
EXTT5=
EXTT6=
EXTT7=
EXTT8=
EXTT9=
EXTT10=
EXTT11=
EXTT12=
EXTT13=
PLAYORDER=
